<svg width="24" height="24" viewBox="0 0 24 24" fill="none" xmlns="http://www.w3.org/2000/svg">
<path d="M4.91275 13.336C4.89879 13.3496 4.79212 13.7673 4.67577 14.2642C4.55942 14.7611 4.48201 15.173 4.50362 15.1796C4.52529 15.1862 4.87667 15.2376 5.2845 15.2938C6.10346 15.4068 7.05967 15.6802 7.65769 15.9724C9.52145 16.8831 10.7555 18.5171 11.0763 20.4989L11.158 21.0036L11.9813 21.0036L12.8047 21.0036L12.8828 20.5462C13.3951 17.5494 15.678 15.5957 19.0944 15.2302C19.3175 15.2063 19.5 15.1778 19.5 15.1668C19.5 15.0658 19.0888 13.3911 19.0562 13.3594C19.0327 13.3365 18.8235 13.3535 18.5916 13.3973C16.0228 13.8819 13.9325 15.2695 13.0585 17.0701L12.8488 17.502L12.8324 8.62003L12.822 3.00362L11.1557 3.00362L11.1453 8.63448L11.1288 17.4955L10.8473 16.9502C10.1171 15.5356 8.68476 14.4156 6.76216 13.7561C6.21443 13.5681 4.96569 13.2845 4.91275 13.336Z" fill="#111A30"/>
</svg>
