<svg width="24" height="24" viewBox="0 0 24 24" fill="none" xmlns="http://www.w3.org/2000/svg">
<path d="M13.3324 19.0909C13.346 19.1048 13.7637 19.2115 14.2606 19.3278C14.7575 19.4442 15.1694 19.5216 15.176 19.5C15.1826 19.4783 15.234 19.1269 15.2902 18.7191C15.4032 17.9001 15.6766 16.9439 15.9688 16.3459C16.8795 14.4822 18.5135 13.2481 20.4953 12.9273L21 12.8456V12.0223V11.1989L20.5426 11.1208C17.5458 10.6085 15.5921 8.32558 15.2266 4.90916C15.2027 4.68607 15.1742 4.5036 15.1632 4.5036C15.0622 4.5036 13.3875 4.9148 13.3558 4.94738C13.3329 4.97093 13.3499 5.18007 13.3937 5.41205C13.8783 7.98083 15.2659 10.0711 17.0665 10.9451L17.4984 11.1548L8.61642 11.1712L3 11.1816V12.8479L8.63086 12.8583L17.4919 12.8748L16.9466 13.1563C15.532 13.8865 14.412 15.3188 13.7524 17.2414C13.5645 17.7892 13.2809 19.0379 13.3324 19.0909Z" fill="#111A30"/>
</svg>
