<svg width="24" height="24" viewBox="0 0 24 24" fill="none" xmlns="http://www.w3.org/2000/svg">
<path d="M10.6676 19.0909C10.654 19.1049 10.2363 19.2115 9.73943 19.3279C9.24252 19.4442 8.83059 19.5217 8.82397 19.5C8.81741 19.4784 8.76599 19.127 8.70977 18.7192C8.59684 17.9002 8.3234 16.944 8.03123 16.346C7.1205 14.4822 5.4865 13.2482 3.50467 12.9274L3 12.8457V12.0224V11.199L3.45741 11.1208C6.45419 10.6086 8.40794 8.32564 8.77343 4.90922C8.79728 4.68613 8.8258 4.50366 8.83678 4.50366C8.93785 4.50366 10.6125 4.91486 10.6442 4.94744C10.6671 4.97099 10.6501 5.18013 10.6063 5.41211C10.1217 7.98089 8.73413 10.0712 6.9335 10.9452L6.50158 11.1548L15.3836 11.1712L21 11.1817V12.8479L15.3691 12.8584L6.50807 12.8748L7.05337 13.1563C8.46801 13.8865 9.58801 15.3189 10.2476 17.2415C10.4355 17.7892 10.7191 19.038 10.6676 19.0909Z" fill="#4B8631"/>
</svg>
