<svg width="16" height="17" viewBox="0 0 16 17" fill="none" xmlns="http://www.w3.org/2000/svg">
<path d="M5.25583 1.94032C6.48361 1.88587 9.52233 1.8831 10.749 1.94032C13.2584 2.05591 14.514 3.47577 14.624 5.8163C14.6784 7.0441 14.6818 10.0811 14.624 11.3085C14.5329 13.2912 13.6011 14.3954 12.3662 14.8749C11.4579 15.2266 10.5708 15.2245 8.00193 15.2245C5.4982 15.2245 3.74516 15.393 2.45798 14.1063C1.19554 12.8436 1.33982 11.1555 1.33982 8.56239C1.3398 6.02868 1.17582 4.30061 2.45798 3.01844C3.22514 2.2513 4.17707 1.9909 5.25583 1.94032ZM7.97849 3.0829C6.19682 3.0829 5.98803 3.0911 5.28025 3.1161C2.2001 3.274 2.51461 5.48438 2.51462 8.5536C2.51462 10.8217 2.34539 12.3182 3.28123 13.2499C4.094 14.0649 5.20853 14.0243 7.9863 14.0243C10.6836 14.0243 11.8499 14.0989 12.6904 13.2587C13.5165 12.4287 13.4643 11.3078 13.4648 8.56239C13.4648 6.7835 13.4574 6.57181 13.4258 5.86903C13.2861 2.78944 10.9633 3.0995 8.0029 3.0995L7.97849 3.0829ZM8.00193 5.14149C9.8907 5.14149 11.4236 6.67199 11.4238 8.56239C11.4238 10.4513 9.89248 11.9843 8.00193 11.9843C6.11318 11.9841 4.58103 10.4528 4.58103 8.56239C4.58121 6.67376 6.11163 5.14166 8.00193 5.14149ZM8.00193 6.34266C6.77552 6.34283 5.78141 7.33598 5.78123 8.56239C5.78123 9.78895 6.77485 10.7829 8.00193 10.7831C9.22915 10.7831 10.2232 9.78905 10.2226 8.56239C10.2224 7.33588 9.22848 6.34266 8.00193 6.34266ZM11.5586 4.20692C12.0001 4.20692 12.3584 4.56521 12.3584 5.00673C12.3583 5.4482 12.0001 5.80653 11.5586 5.80653C11.1172 5.80636 10.7598 5.4481 10.7597 5.00673C10.7597 4.56531 11.1172 4.20709 11.5586 4.20692Z" fill="#F9FAFB"/>
</svg>
