<svg width="16" height="17" viewBox="0 0 16 17" fill="none" xmlns="http://www.w3.org/2000/svg">
<path d="M14.3715 5.19247L14.3882 5.30136C14.2271 4.72969 13.7921 4.28858 13.2393 4.12803L13.2276 4.12525C12.1882 3.84303 8.00539 3.84303 8.00539 3.84303C8.00539 3.84303 3.83317 3.83747 2.78317 4.12525C2.21984 4.28858 1.78428 4.72969 1.62595 5.28969L1.62317 5.30136C1.23484 7.32969 1.23206 9.76691 1.64039 11.9386L1.62317 11.8286C1.78428 12.4002 2.21928 12.8414 2.77206 13.0019L2.78373 13.0047C3.82206 13.2875 8.00595 13.2875 8.00595 13.2875C8.00595 13.2875 12.1776 13.2875 13.2282 13.0047C13.7921 12.8414 14.2276 12.4002 14.3859 11.8402L14.3887 11.8286C14.5654 10.8852 14.6665 9.79969 14.6665 8.6908C14.6665 8.65025 14.6665 8.60914 14.6659 8.56803C14.6665 8.53025 14.6665 8.48525 14.6665 8.44025C14.6665 7.3308 14.5654 6.24525 14.3715 5.19247ZM6.67095 10.5936V6.54191L10.1521 8.5708L6.67095 10.5936Z" fill="#F9FAFB"/>
</svg>
