<svg width="20" height="20" viewBox="0 0 20 20" fill="none" xmlns="http://www.w3.org/2000/svg">
<path fill-rule="evenodd" clip-rule="evenodd" d="M2.5 4.85715C2.5 4.50211 2.78782 4.21429 3.14286 4.21429L16.8571 4.21429C17.2122 4.21429 17.5 4.50211 17.5 4.85715C17.5 5.21219 17.2122 5.50001 16.8571 5.50001L3.14286 5.50001C2.78782 5.50001 2.5 5.21219 2.5 4.85715ZM2.5 10C2.5 9.64497 2.78782 9.35715 3.14286 9.35715L16.8571 9.35715C17.2122 9.35715 17.5 9.64497 17.5 10C17.5 10.355 17.2122 10.6429 16.8571 10.6429L3.14286 10.6429C2.78782 10.6429 2.5 10.355 2.5 10ZM2.5 15.1429C2.5 14.7878 2.78782 14.5 3.14286 14.5L16.8571 14.5C17.2122 14.5 17.5 14.7878 17.5 15.1429C17.5 15.4979 17.2122 15.7857 16.8571 15.7857L3.14286 15.7857C2.78782 15.7857 2.5 15.4979 2.5 15.1429Z" fill="#112030"/>
</svg>
